<svg width="50" height="50" viewBox="0 0 50 50" fill="none" xmlns="http://www.w3.org/2000/svg">
<g clip-path="url(#clip0_1759_3726)">
<path fill-rule="evenodd" clip-rule="evenodd" d="M23.5269 23.5269C24.3405 22.7133 25.6596 22.7133 26.4732 23.5269L34.8065 31.8602C35.6201 32.6738 35.6201 33.9929 34.8065 34.8065C33.9929 35.6201 32.6738 35.6201 31.8602 34.8065L25 27.9463L18.1398 34.8065C17.3263 35.6201 16.0072 35.6201 15.1936 34.8065C14.38 33.9929 14.38 32.6738 15.1936 31.8602L23.5269 23.5269Z" fill="#E6E6E6"/>
<path fill-rule="evenodd" clip-rule="evenodd" d="M25 22.9167C26.1506 22.9167 27.0833 23.8494 27.0833 25V43.75C27.0833 44.9006 26.1506 45.8334 25 45.8334C23.8494 45.8334 22.9166 44.9006 22.9166 43.75V25C22.9166 23.8494 23.8494 22.9167 25 22.9167Z" fill="#E6E6E6"/>
<path fill-rule="evenodd" clip-rule="evenodd" d="M18.0485 4.18453C20.8808 4.08018 23.6999 4.61925 26.2938 5.76123C28.8877 6.9032 31.189 8.61836 33.0247 10.7778C34.5069 12.5214 35.6544 14.5179 36.4148 16.6667H37.5C40.2772 16.6685 42.976 17.5951 45.168 19.3003C47.3601 21.0055 48.9219 23.3921 49.6069 26.0834C50.2919 28.7748 50.0612 31.6176 48.9511 34.1633C47.841 36.7089 45.9147 38.8124 43.4764 40.1417C42.4661 40.6924 41.2007 40.32 40.65 39.3097C40.0993 38.2995 40.4717 37.0341 41.482 36.4834C43.1075 35.5971 44.3917 34.1948 45.1317 32.4977C45.8718 30.8006 46.0256 28.9054 45.569 27.1112C45.1123 25.3169 44.0711 23.7259 42.6097 22.5891C41.1484 21.4523 39.3501 20.8346 37.4986 20.8334H34.875C33.9253 20.8334 33.0957 20.191 32.858 19.2715C32.3062 17.1373 31.2778 15.156 29.8501 13.4764C28.4223 11.7969 26.6324 10.4629 24.6149 9.57469C22.5974 8.68649 20.4048 8.26721 18.2019 8.34837C15.9991 8.42953 13.8433 9.00903 11.8966 10.0433C9.94991 11.0775 8.26303 12.5397 6.96276 14.3197C5.6625 16.0997 4.78268 18.1514 4.38946 20.3204C3.99624 22.4894 4.09984 24.7193 4.69249 26.8426C5.28513 28.9658 6.3514 30.927 7.81111 32.5788C8.57303 33.441 8.49175 34.7576 7.62957 35.5195C6.76739 36.2814 5.4508 36.2001 4.68889 35.3379C2.81211 33.2142 1.4412 30.6926 0.679231 27.9628C-0.0827414 25.2329 -0.21595 22.3659 0.289621 19.5771C0.795192 16.7884 1.92638 14.1506 3.59816 11.8619C5.26993 9.57333 7.43878 7.69347 9.94164 6.36371C12.4445 5.03395 15.2163 4.28888 18.0485 4.18453Z" fill="#E6E6E6"/>
<path fill-rule="evenodd" clip-rule="evenodd" d="M23.5269 23.5269C24.3405 22.7133 25.6596 22.7133 26.4732 23.5269L34.8065 31.8602C35.6201 32.6738 35.6201 33.9929 34.8065 34.8065C33.9929 35.6201 32.6738 35.6201 31.8602 34.8065L25 27.9463L18.1398 34.8065C17.3263 35.6201 16.0072 35.6201 15.1936 34.8065C14.38 33.9929 14.38 32.6738 15.1936 31.8602L23.5269 23.5269Z" fill="#E6E6E6"/>
</g>
<defs>
<clipPath id="clip0_1759_3726">
<rect width="50" height="50" fill="white"/>
</clipPath>
</defs>
</svg>
