<svg width="20" height="22" viewBox="0 0 20 22" fill="none" xmlns="http://www.w3.org/2000/svg">
<path d="M9.5367 19.4809C8.82216 18.9074 2.18688 12.4548 2.11271 12.3843C1.81966 12.0912 1.63515 11.7873 1.58449 11.5088C1.53203 11.2193 1.62067 10.9661 1.85584 10.7309C2.07472 10.512 2.34245 10.3962 2.63008 10.3962C2.98101 10.3962 3.341 10.5627 3.64129 10.8648L6.64959 13.7555C6.70205 13.8061 6.77079 13.8315 6.83772 13.8315C6.90827 13.8315 6.97701 13.8043 7.02947 13.7519C7.13439 13.647 7.13439 13.4769 7.03128 13.372L2.22848 8.41181C1.7473 7.93063 1.52118 7.19438 2.09281 6.62275C2.3117 6.40386 2.57942 6.28809 2.86705 6.28809C3.21799 6.28809 3.57797 6.45451 3.87826 6.75661L8.7914 11.5467C8.84386 11.5974 8.9126 11.6245 8.98135 11.6245C9.05009 11.6245 9.12064 11.5974 9.1731 11.5449C9.27802 11.44 9.27982 11.27 9.1749 11.1632L3.27407 5.11407C3.00091 4.84092 2.8363 4.5135 2.80735 4.19512C2.78022 3.87132 2.89418 3.57103 3.13839 3.32682C3.35728 3.10793 3.625 2.99216 3.91263 2.99216C4.26357 2.99216 4.62355 3.15858 4.92384 3.45887L10.9423 9.32715C10.9947 9.3778 11.0635 9.40493 11.1322 9.40493C11.2009 9.40493 11.2715 9.3778 11.324 9.32534C11.4289 9.22042 11.4307 9.05038 11.3258 8.94365L6.95531 4.45199C6.68034 4.17703 6.51573 3.85142 6.48859 3.53304C6.46146 3.20923 6.57542 2.90895 6.81963 2.66474C7.03852 2.44585 7.30625 2.33008 7.59387 2.33008C7.94481 2.33008 8.30479 2.4965 8.60508 2.7986C10.2078 4.3724 14.392 8.48779 14.5331 8.63974C15.0703 9.01058 15.1789 8.4498 15.206 8.0862C15.2367 7.6629 14.7519 6.18498 15.0341 4.85539C15.5081 3.08803 16.8739 3.37747 16.9046 3.39194C17.6535 3.74288 17.5106 4.26748 17.2447 5.3221L17.2176 5.53013C16.939 6.90856 18.8529 10.9932 18.994 11.2989C19.7447 12.9415 20.6094 16.2718 17.7458 19.1353C14.6072 22.2739 10.7216 20.6657 9.5367 19.4809Z" fill="url(#paint0_radial_1080_45445)"/>
<path d="M13.5634 21.2429C11.6387 21.2429 10.0016 20.3221 9.35579 19.6836C8.77511 19.2096 5.11015 15.6713 2.12536 12.7751C2.00416 12.6576 1.93361 12.5906 1.92638 12.5816C1.5881 12.2433 1.37826 11.8906 1.31857 11.5577C1.24983 11.1796 1.36741 10.8377 1.66408 10.5393C1.93542 10.2679 2.26827 10.125 2.63006 10.125C3.05517 10.125 3.48209 10.3204 3.83302 10.6731L6.83771 13.5602L2.03311 8.60005C1.47956 8.04651 1.20098 7.12936 1.90105 6.4311C2.1724 6.15976 2.50525 6.01685 2.86704 6.01685C3.29214 6.01685 3.71906 6.21222 4.07 6.56497L8.97953 11.3515L3.0805 5.30412C2.76574 4.98936 2.57218 4.60405 2.53781 4.22055C2.50344 3.81172 2.64454 3.43727 2.94663 3.13517C3.21798 2.86383 3.55083 2.72092 3.91262 2.72092C4.33592 2.72092 4.76283 2.91448 5.11558 3.26723L11.1322 9.13369L6.76174 4.64204C6.44517 4.32547 6.25161 3.94016 6.21905 3.55666C6.18468 3.14964 6.32578 2.77519 6.62787 2.47309C6.89922 2.20175 7.23207 2.05884 7.59386 2.05884C8.01897 2.05884 8.44588 2.25421 8.79682 2.60695L10.1011 3.88589C12.4256 6.16518 14.3684 8.07364 14.5765 8.2871C14.6778 8.3685 14.8098 8.39925 14.8659 8.37212C14.9021 8.35403 14.9419 8.27082 14.9346 8.09535C14.9238 7.78782 14.8804 7.40613 14.8351 7.00273C14.7447 6.19232 14.6506 5.35296 14.7682 4.79942C15.0251 3.83886 15.5298 3.43184 15.906 3.25637C16.4234 3.01759 16.9245 3.1008 17.0204 3.14602C17.961 3.58741 17.7747 4.32547 17.5178 5.34934L17.5124 5.37467L17.4835 5.58632C17.2953 6.51251 18.2613 9.07219 19.2273 11.1579L19.2418 11.1869C19.8876 12.5979 21.0507 16.2176 17.9393 19.329C16.5084 20.7563 14.96 21.2429 13.5634 21.2429ZM2.63006 10.6677C2.41661 10.6677 2.214 10.7563 2.04758 10.9228C1.87573 11.0946 1.81603 11.261 1.85221 11.46C1.89201 11.6789 2.053 11.9394 2.30445 12.1927C2.30626 12.1945 2.37862 12.265 2.50344 12.3844C6.74003 16.4962 9.2979 18.9401 9.70673 19.2693L9.72844 19.2892C10.727 20.2878 14.4372 22.0605 17.554 18.9437C20.4248 16.0729 19.3449 12.7209 18.7461 11.4112L18.7335 11.384C18.1112 10.0418 16.6966 6.78566 16.948 5.48682L16.9896 5.21548C17.2682 4.10839 17.2845 3.87685 16.8123 3.64892C16.673 3.62359 15.6745 3.50239 15.2928 4.92604C15.1969 5.38009 15.2892 6.21041 15.3706 6.94304C15.4176 7.35729 15.461 7.74984 15.4719 8.07726C15.49 8.59281 15.2458 8.78999 15.0974 8.86235C14.7953 9.00888 14.4354 8.88406 14.211 8.69592L14.1875 8.67422C14.0772 8.55483 11.4524 5.98067 9.71577 4.27663L8.4097 2.99407C7.9647 2.54726 7.39126 2.47309 7.00595 2.8584C6.81781 3.04653 6.73279 3.26723 6.75269 3.51144C6.7744 3.7665 6.91188 4.03242 7.14162 4.26216L11.5211 8.75381C11.7273 8.96365 11.7273 9.30735 11.5175 9.51719C11.3167 9.71799 10.9621 9.72161 10.7559 9.52262L4.73389 3.65253C4.28888 3.20753 3.71363 3.13336 3.33013 3.51867C3.142 3.7068 3.05698 3.9275 3.07688 4.17171C3.10039 4.42677 3.23788 4.6945 3.46581 4.92062L9.36845 10.9734C9.57648 11.1832 9.57467 11.527 9.36483 11.7368C9.16404 11.9376 8.80948 11.9412 8.60326 11.7422L3.68831 6.95027C3.2433 6.50165 2.66805 6.42929 2.28455 6.8146C1.81603 7.28312 2.06567 7.8638 2.42022 8.22017L7.22664 13.184C7.43286 13.3938 7.43105 13.7357 7.22121 13.9437C7.01861 14.1463 6.66767 14.1481 6.46145 13.951L3.45314 11.0602C3.19989 10.8052 2.90864 10.6677 2.63006 10.6677Z" fill="#EDA600"/>
<path d="M14.1007 8.46436C13.1076 10.4922 13.236 13.3305 14.7266 15.608C14.8949 15.9155 15.1825 15.7653 15.036 15.4488C13.236 11.5975 15.1228 8.82253 15.1228 8.82253L14.1007 8.46436Z" fill="#EDA600"/>
<path d="M10.1951 0.859358C10.7415 0.71645 11.3239 0.729112 11.8901 0.861167C12.4527 0.996839 13.0153 1.28266 13.4332 1.74937C13.842 2.21246 14.0935 2.77505 14.1785 3.36477C14.2581 3.94907 14.1839 4.55145 13.9071 5.05073C13.8746 4.48995 13.7769 3.97439 13.6123 3.49864C13.5273 3.26166 13.4278 3.03554 13.3066 2.82208C13.1872 2.61043 13.0461 2.40059 12.8959 2.22874C12.5902 1.876 12.176 1.60103 11.7111 1.38758C11.2443 1.16688 10.736 1.00407 10.1951 0.859358Z" fill="#B0BEC5"/>
<path d="M10.3453 2.57429C10.6474 2.38254 11.0255 2.34274 11.3818 2.40605C11.7418 2.46937 12.0855 2.64845 12.3569 2.89628C12.6264 3.14773 12.8181 3.4643 12.9375 3.79353C12.9954 3.95814 13.0244 4.1318 13.0515 4.30004C13.0605 4.4737 13.0605 4.64736 13.0334 4.82102C12.9086 4.68896 12.8109 4.55691 12.7187 4.42847C12.6119 4.30727 12.5287 4.17884 12.4328 4.06125C12.2447 3.8279 12.062 3.61625 11.8648 3.42812C11.6622 3.24541 11.4488 3.08441 11.2009 2.94512C10.9549 2.80222 10.6781 2.68282 10.3453 2.57429Z" fill="#90A4AE"/>
<path d="M0.00345747 14.0359C0.258521 14.5352 0.524439 14.9983 0.833772 15.4071C1.1413 15.8159 1.49404 16.1632 1.90468 16.3894C2.10366 16.4997 2.34064 16.5956 2.57219 16.6679C2.80554 16.7421 3.04794 16.7927 3.29758 16.8271C3.79685 16.8886 4.32145 16.8778 4.8768 16.7927C4.44627 17.1672 3.87102 17.3662 3.28492 17.4096C2.69158 17.4494 2.08919 17.321 1.55012 17.0171C1.00743 16.7077 0.60946 16.2157 0.359823 15.6929C0.110186 15.1665 -0.023677 14.6003 0.00345747 14.0359Z" fill="#B0BEC5"/>
<path d="M1.71293 13.8242C1.8884 14.1281 2.06206 14.3723 2.252 14.5858C2.44014 14.7992 2.64274 14.9747 2.86343 15.1339C3.08774 15.2877 3.33376 15.4233 3.60149 15.559C3.73535 15.6278 3.87826 15.682 4.01936 15.7616C4.16589 15.8249 4.31422 15.8919 4.46979 15.9877C4.30518 16.0492 4.13694 16.0854 3.96509 16.1126C3.79505 16.1198 3.61958 16.1288 3.44592 16.1053C3.0986 16.0583 2.75128 15.9371 2.44737 15.7254C2.14889 15.5102 1.90106 15.2117 1.76539 14.8734C1.62791 14.537 1.58811 14.1607 1.71293 13.8242Z" fill="#90A4AE"/>
<defs>
<radialGradient id="paint0_radial_1080_45445" cx="0" cy="0" r="1" gradientUnits="userSpaceOnUse" gradientTransform="translate(6.73574 6.9194) rotate(-45) scale(16.4629)">
<stop offset="0.3533" stop-color="#FFCA28"/>
<stop offset="0.8723" stop-color="#FFB300"/>
</radialGradient>
</defs>
</svg>
